<svg xmlns="http://www.w3.org/2000/svg" viewBox="0 0 100 100" fill="#1D19FF">
<path d="M38.9 12.0C38.5 12.5 12.8 38.2 12.6 38.4L12.3 38.5L12.3 38.8L12.3 39.1L12.5 39.2L12.7 39.3L18.1 39.3L23.6 39.3L23.8 39.5L24.0 39.7L24.0 44.6L24.0 49.6L24.1 49.8L24.2 50.0L24.4 50.0L24.7 50.0L24.9 49.7C25.0 49.6 30.8 43.8 37.7 36.8L50.4 24.1L50.4 18.2L50.4 12.2L50.2 12.0L50.0 11.8L44.5 11.8L39.1 11.8L38.9 12.0Z"/>
<path d="M70.2 12.0C70.1 12.2 70.0 12.3 70.0 12.3C70.0 12.4 69.9 12.5 69.8 12.6L69.6 12.8L69.0 12.8L68.5 12.8L68.3 13.0C67.9 13.5 28.4 52.9 28.2 53.1L28.0 53.2L28.0 53.5L28.0 53.8L28.2 53.9L28.4 54.0L36.7 54.0L45.1 54.0L45.3 54.2C45.4 54.3 45.7 54.6 46.0 54.9L46.5 55.4L46.5 63.3L46.5 71.2L46.6 71.4L46.7 71.5L47.0 71.5L47.3 71.5L47.4 71.3C47.5 71.1 56.6 62.0 67.6 51.0L87.7 31.0L87.7 22.1L87.7 13.3L87.2 12.8C86.9 12.5 86.6 12.2 86.5 12.1L86.3 11.8L78.4 11.8L70.4 11.8L70.2 12.0Z"/>
<path d="M75.2 50.2C74.7 50.8 50.0 75.5 49.8 75.6L49.5 75.8L49.5 76.1L49.5 76.3L49.7 76.4L49.9 76.5L54.9 76.5L59.8 76.5L60.0 76.7L60.2 76.9L60.2 82.4L60.2 87.8L60.3 88.0L60.4 88.2L60.7 88.2L61.0 88.2L61.2 87.9C61.2 87.8 67.3 81.8 74.5 74.5L87.7 61.3L87.7 55.9L87.7 50.5L87.5 50.3L87.3 50.1L81.3 50.1L75.3 50.1L75.2 50.2Z"/>
</svg>