<svg xmlns="http://www.w3.org/2000/svg" viewBox="0 0 347.9 100" fill="none">
<g fill="#1D19FF">
<path d="M26.6 23.8C26.2 24.3 0.5 50.0 0.3 50.2L0.0 50.3L0.0 50.6L0.0 50.9L0.2 51.0L0.4 51.1L5.8 51.1L11.3 51.1L11.5 51.3L11.7 51.5L11.7 56.4L11.7 61.4L11.8 61.6L11.9 61.8L12.1 61.8L12.4 61.8L12.6 61.5C12.7 61.4 18.5 55.6 25.4 48.6L38.1 35.9L38.1 30.0L38.1 24.0L37.9 23.8L37.7 23.6L32.2 23.6L26.8 23.6L26.6 23.8Z"/>
<path d="M57.9 23.8C57.8 24.0 57.7 24.1 57.7 24.1C57.7 24.2 57.6 24.3 57.5 24.4L57.3 24.6L56.7 24.6L56.2 24.6L56.0 24.8C55.6 25.3 16.1 64.7 15.9 64.9L15.7 65.0L15.7 65.3L15.7 65.6L15.9 65.7L16.1 65.8L24.4 65.8L32.8 65.8L33.0 66.0C33.1 66.1 33.4 66.4 33.7 66.7L34.2 67.2L34.2 75.1L34.2 83.0L34.3 83.2L34.4 83.3L34.7 83.3L35.0 83.3L35.1 83.1C35.2 82.9 44.3 73.8 55.3 62.8L75.4 42.8L75.4 33.9L75.4 25.1L74.9 24.6C74.6 24.3 74.3 24.0 74.2 23.9L74.0 23.6L66.1 23.6L58.1 23.6L57.9 23.8Z"/>
<path d="M62.9 62.0C62.4 62.6 37.7 87.3 37.5 87.4L37.2 87.6L37.2 87.9L37.2 88.1L37.4 88.2L37.6 88.3L42.6 88.3L47.5 88.3L47.7 88.5L47.9 88.7L47.9 94.2L47.9 99.6L48.0 99.8L48.1 100.0L48.4 100.0L48.7 100.0L48.9 99.7C48.9 99.6 55.0 93.6 62.2 86.3L75.4 73.1L75.4 67.7L75.4 62.3L75.2 62.1L75.0 61.9L69.0 61.9L63.0 61.9L62.9 62.0Z"/>
</g>
<g fill="#141420">
<path d="M214.3 0.3C214.1 0.3 213.6 0.5 213.3 0.8C213.0 1.0 212.7 1.1 212.6 1.1C212.2 1.1 210.3 2.8 209.9 3.5C209.5 4.2 209.6 6.1 210.1 6.9C210.3 7.3 210.6 7.8 210.7 8.1C210.9 8.5 211.1 8.6 211.5 8.8C211.7 9.0 212.3 9.3 212.6 9.5C213.4 9.9 216.3 10.1 217.1 9.7C217.8 9.3 219.4 7.4 219.4 7.0C219.4 6.9 219.6 6.5 219.8 6.2C220.4 5.3 220.4 4.9 220.1 4.3C219.8 3.8 219.5 3.2 219.3 2.8C219.1 2.1 217.9 1.1 217.5 1.1C217.4 1.1 217.0 0.9 216.6 0.7C215.7 0.1 214.9 0.0 214.3 0.3Z"/>
<path d="M143.8 17.9C143.6 17.9 143.2 18.1 142.9 18.3C142.4 18.6 142.2 18.7 141.5 18.7C140.8 18.8 140.6 18.9 140.0 19.3C139.6 19.5 139.2 19.7 139.1 19.7C138.8 19.7 138.3 20.1 137.6 20.7C137.1 21.1 136.6 21.5 136.4 21.6C136.2 21.7 135.9 21.8 135.7 21.9C135.2 22.1 133.6 23.7 133.4 24.2C133.3 24.5 133.1 24.8 133.0 25.0C133.0 25.2 132.4 25.9 131.8 26.5C130.7 27.6 130.3 28.3 130.3 28.6C130.3 28.6 130.0 29.1 129.8 29.5C129.5 30.0 129.3 30.4 129.3 30.5C129.3 30.6 129.1 31.0 128.8 31.4C128.4 32.2 128.4 32.2 128.3 33.5C128.2 34.7 128.2 34.7 127.8 35.4C127.1 36.5 127.1 45.1 127.8 46.2C128.1 46.8 128.2 47.0 128.3 47.7C128.4 48.3 128.5 48.6 128.8 49.1C129.1 49.7 129.2 49.9 129.3 50.6C129.4 51.3 129.4 51.5 129.8 52.2C130.1 52.6 130.3 53.0 130.3 53.0C130.3 53.3 130.7 54.0 131.8 55.1C132.4 55.7 133.0 56.4 133.0 56.6C133.1 56.8 133.3 57.1 133.4 57.4C133.5 57.8 134.4 58.6 134.9 58.8C135.8 59.2 136.0 59.3 137.1 60.4C138.2 61.4 138.8 61.9 139.1 61.9C139.2 61.9 139.6 62.1 140.0 62.3C140.6 62.7 140.8 62.8 141.5 62.9C142.2 62.9 142.4 63.0 143.0 63.4C143.7 63.8 143.7 63.8 148.9 63.8C154.0 63.8 154.0 63.8 154.7 63.4C155.3 63.0 155.5 62.9 156.2 62.9C157.2 62.7 157.2 62.7 158.2 61.8C158.7 61.4 159.2 61.1 159.4 61.0C159.6 60.9 159.9 60.8 160.1 60.7C160.3 60.6 161.3 59.7 162.9 58.1C166.5 54.6 166.5 54.6 166.5 59.0C166.6 63.1 166.3 62.9 170.1 62.8C172.9 62.8 173.0 62.8 173.3 62.1C173.4 61.6 173.4 20.0 173.3 19.5C173.0 18.8 172.9 18.8 170.1 18.8C166.3 18.7 166.6 18.5 166.5 22.6C166.5 27.1 166.6 27.1 162.4 23.0C159.8 20.4 159.1 19.7 158.7 19.7C158.6 19.7 158.2 19.5 157.8 19.3C157.1 18.9 156.9 18.8 156.2 18.7C155.5 18.7 155.3 18.6 154.7 18.2C154.0 17.8 154.0 17.8 149.0 17.8C146.3 17.8 143.9 17.8 143.8 17.9ZM154.8 25.1C155.2 25.4 155.7 25.6 155.7 25.6C155.8 25.6 156.3 25.8 156.7 26.1C157.2 26.4 157.6 26.6 157.7 26.6C157.9 26.6 158.5 26.9 159.1 27.6C159.6 27.9 160.2 28.4 160.6 28.6C161.3 28.9 161.3 28.9 161.6 29.6C161.8 30.0 162.2 30.6 162.6 31.0C163.2 31.7 163.6 32.2 163.6 32.5C163.6 32.6 163.8 33.0 164.1 33.5C164.3 33.9 164.6 34.4 164.6 34.4C164.6 34.5 164.8 34.9 165.0 35.4C165.5 36.1 165.5 36.1 165.5 40.8C165.5 45.5 165.5 45.5 165.0 46.2C164.8 46.7 164.6 47.1 164.6 47.2C164.6 47.3 164.3 47.7 164.1 48.2C163.8 48.6 163.6 49.0 163.6 49.1C163.6 49.8 158.4 55.0 157.7 55.0C157.6 55.0 157.2 55.2 156.8 55.5C156.2 55.8 155.9 55.9 155.2 56.0C154.6 56.1 154.3 56.2 153.7 56.5C152.6 57.2 147.1 57.1 145.9 56.5C145.5 56.2 145.0 56.0 145.0 56.0C144.9 56.0 144.4 55.8 144.0 55.5C143.5 55.2 143.1 55.0 143.0 55.0C142.8 55.0 142.2 54.7 141.5 54.0C141.1 53.7 140.5 53.2 140.1 53.1C139.4 52.7 139.4 52.7 139.1 52.0C138.9 51.6 138.5 51.0 138.1 50.6C137.5 49.9 137.1 49.4 137.1 49.1C137.1 49.0 136.9 48.6 136.6 48.2C136.4 47.7 136.1 47.3 136.1 47.2C136.1 47.1 135.9 46.7 135.7 46.2C135.2 45.5 135.2 45.5 135.2 40.8C135.2 36.1 135.2 36.1 135.7 35.4C135.9 34.9 136.1 34.5 136.1 34.4C136.1 34.4 136.4 33.9 136.6 33.5C136.9 33.0 137.1 32.5 137.1 32.5C137.1 32.4 137.3 32.0 137.6 31.5C137.9 31.0 138.1 30.6 138.1 30.5C138.1 29.9 140.4 27.6 141.1 27.6C141.1 27.6 141.6 27.3 142.0 27.1C142.5 26.8 142.9 26.6 143.0 26.6C143.1 26.6 143.5 26.4 144.0 26.1C144.4 25.8 144.9 25.6 145.0 25.6C145.0 25.6 145.4 25.5 145.7 25.3C146.7 24.6 146.6 24.6 150.5 24.7C154.0 24.7 154.0 24.7 154.8 25.1Z"/>
<path d="M235.8 17.9C235.6 18.0 235.2 18.2 234.9 18.4C234.6 18.6 234.2 18.7 234.2 18.7C234.1 18.7 233.6 19.0 233.2 19.2C232.7 19.5 232.3 19.7 232.2 19.7C231.8 19.7 231.1 20.3 229.5 21.9C227.4 24.0 227.4 24.1 227.3 25.1C227.2 25.8 227.1 26.0 226.8 26.6C226.1 27.8 226.1 33.3 226.8 34.5C227.1 34.9 227.3 35.3 227.3 35.4C227.3 35.5 227.5 35.9 227.8 36.4C228.1 36.9 228.3 37.3 228.3 37.4C228.3 37.8 229.3 39.0 229.9 39.2C230.1 39.3 230.4 39.4 230.5 39.4C230.7 39.5 231.2 39.9 231.6 40.3C232.6 41.1 232.7 41.2 233.7 41.3C234.3 41.4 234.6 41.4 235.1 41.8C235.7 42.1 235.9 42.2 236.6 42.3C237.3 42.4 237.5 42.4 238.1 42.8C238.8 43.2 238.8 43.2 240.5 43.3C242.2 43.3 242.2 43.3 243.0 43.7C243.7 44.2 243.7 44.2 244.9 44.2C246.2 44.3 246.2 44.3 246.9 44.7C247.4 45.1 247.7 45.1 248.3 45.2C249.4 45.3 249.5 45.4 251.1 46.9C252.8 48.7 252.7 48.5 252.7 50.6C252.7 52.3 252.7 52.3 252.3 53.1C252.0 53.5 251.8 53.9 251.8 54.0C251.8 54.3 251.4 54.9 250.6 55.7C249.5 56.8 249.4 56.9 248.3 57.0C247.7 57.1 247.4 57.1 246.8 57.5C245.8 58.1 240.2 58.1 239.1 57.5C238.5 57.1 238.3 57.1 237.6 57.0C236.9 56.9 236.7 56.8 236.0 56.4C235.6 56.2 235.2 56.0 235.1 56.0C234.7 56.0 233.5 55.0 233.3 54.3C233.2 54.1 233.0 53.8 232.9 53.5C232.5 52.7 232.2 52.1 232.0 51.7C230.7 49.0 231.0 49.1 227.8 49.1C224.3 49.1 224.4 49.1 224.4 51.6C224.4 53.3 224.4 53.3 224.9 54.1C225.1 54.5 225.3 54.9 225.3 55.0C225.3 55.1 225.6 55.5 225.8 56.0C226.1 56.5 226.3 56.9 226.3 57.0C226.3 57.3 226.7 57.9 227.6 58.7C228.4 59.5 228.6 59.7 229.5 60.0C229.7 60.1 230.2 60.5 230.7 60.9C231.4 61.5 232.0 61.9 232.2 61.9C232.3 61.9 232.7 62.1 233.1 62.3C233.7 62.7 233.9 62.8 234.6 62.9C235.3 62.9 235.5 63.0 236.1 63.4C236.8 63.8 236.8 63.8 243.0 63.8C249.1 63.8 249.1 63.8 249.8 63.4C250.4 63.0 250.6 62.9 251.3 62.9C252.0 62.8 252.2 62.7 252.8 62.3C253.3 62.1 253.7 61.9 253.7 61.9C254.4 61.9 258.6 57.7 258.6 57.0C258.6 56.9 258.9 56.5 259.1 56.0C259.4 55.5 259.6 55.1 259.6 55.0C259.6 54.9 259.8 54.5 260.1 54.1C260.8 52.9 260.8 48.3 260.1 47.2C259.8 46.6 259.7 46.4 259.6 45.7C259.5 44.6 259.5 44.6 257.4 42.5C255.8 40.9 255.1 40.3 254.7 40.3C254.6 40.3 254.2 40.1 253.7 39.8C253.3 39.6 252.8 39.3 252.8 39.3C252.7 39.3 252.3 39.1 251.8 38.9C251.1 38.4 251.1 38.4 249.3 38.4C247.6 38.3 247.6 38.3 246.9 37.9C246.2 37.4 246.2 37.4 244.4 37.4C242.7 37.3 242.7 37.3 242.0 36.9C241.3 36.5 241.3 36.5 240.0 36.4C238.8 36.3 238.8 36.3 238.0 35.9C237.6 35.6 237.2 35.4 237.1 35.4C236.8 35.4 236.2 35.0 235.4 34.2C234.1 32.9 234.2 33.2 234.2 30.0C234.2 26.9 234.1 27.1 235.4 25.9C236.4 24.8 236.6 24.7 237.6 24.6C238.3 24.6 238.5 24.5 239.1 24.1C240.2 23.4 244.8 23.5 246.0 24.2C246.4 24.4 246.8 24.6 246.9 24.6C247.0 24.6 247.4 24.8 247.9 25.1C248.3 25.4 248.8 25.6 248.8 25.6C249.3 25.6 250.5 26.6 250.7 27.3C250.8 27.7 251.0 28.0 251.7 29.3C252.3 30.5 252.2 30.5 255.2 30.5C258.6 30.5 258.6 30.5 258.6 28.3C258.7 26.4 258.6 26.2 257.7 25.1C257.3 24.7 256.9 24.1 256.8 23.9C256.5 23.0 256.3 22.8 255.5 22.0C254.6 21.1 254.4 20.9 253.5 20.6C253.3 20.5 252.8 20.2 252.3 19.8C251.3 18.9 251.3 18.9 250.3 18.7C249.6 18.7 249.4 18.6 248.8 18.2C248.1 17.8 248.1 17.8 242.1 17.8C237.4 17.8 236.1 17.8 235.8 17.9Z"/>
<path d="M318.2 17.9C318.1 17.9 317.7 18.1 317.4 18.3C316.9 18.6 316.7 18.7 316.0 18.7C315.0 18.9 315.0 18.9 314.0 19.8C313.5 20.2 313.0 20.5 312.8 20.6C311.8 21.0 311.7 21.1 308.9 23.9C306.4 26.4 305.7 27.2 305.7 27.6C305.7 27.7 305.5 28.1 305.2 28.6C304.9 29.0 304.7 29.5 304.7 29.5C304.7 29.6 304.5 30.0 304.2 30.5C304.0 31.0 303.7 31.4 303.7 31.5C303.7 31.6 303.5 32.0 303.3 32.4C302.8 33.2 302.8 33.2 302.8 34.9C302.7 36.6 302.7 36.6 302.3 37.4C301.8 38.1 301.8 38.1 301.8 40.8C301.8 43.5 301.8 43.5 302.3 44.2C302.7 45.0 302.7 45.0 302.8 46.7C302.8 48.4 302.8 48.4 303.3 49.2C303.5 49.6 303.7 50.0 303.7 50.1C303.7 50.2 304.0 50.6 304.2 51.1C304.5 51.6 304.7 52.0 304.7 52.1C304.7 52.2 304.9 52.6 305.2 53.1C305.5 53.5 305.7 53.9 305.7 54.0C305.7 54.4 306.4 55.2 308.9 57.7C311.7 60.5 311.8 60.6 312.8 61.0C313.0 61.1 313.5 61.4 314.0 61.8C315.0 62.7 315.0 62.7 316.0 62.9C316.7 62.9 316.9 63.0 317.5 63.4C318.2 63.8 318.2 63.8 323.3 63.8C328.5 63.8 328.5 63.8 329.2 63.4C329.8 63.0 330.0 62.9 330.7 62.9C331.4 62.8 331.6 62.7 332.2 62.3C332.6 62.1 333.0 61.9 333.1 61.9C333.5 61.9 334.3 61.2 336.9 58.6C338.4 57.1 339.8 55.6 340.0 55.4C340.8 54.1 341.0 54.9 341.0 59.0C341.0 63.1 340.8 62.8 344.4 62.8C347.4 62.8 347.5 62.8 347.7 62.1C347.9 61.6 347.9 20.0 347.7 19.5C347.5 18.8 347.3 18.8 344.6 18.8C340.8 18.7 341.0 18.5 341.0 22.6C340.9 26.0 340.9 26.3 340.1 26.0C339.7 25.8 338.4 24.5 338.2 24.0C338.1 23.8 337.9 23.4 337.9 23.2C337.7 22.8 336.8 22.0 336.4 21.8C336.2 21.7 335.9 21.6 335.8 21.6C335.6 21.5 335.1 21.1 334.7 20.7C333.9 20.1 333.4 19.7 333.1 19.7C333.0 19.7 332.6 19.5 332.2 19.3C331.6 18.9 331.4 18.8 330.7 18.7C330.0 18.7 329.8 18.6 329.2 18.2C328.5 17.8 328.5 17.8 323.5 17.8C320.7 17.8 318.4 17.8 318.2 17.9ZM329.2 25.1C329.8 25.5 330.0 25.5 330.7 25.6C331.6 25.7 331.7 25.8 332.7 26.6C333.1 27.0 333.6 27.4 333.8 27.5C334.7 27.8 335.0 28.0 335.8 28.8C336.7 29.7 336.8 29.9 337.2 30.8C337.2 31.0 337.6 31.5 338.0 31.9C338.7 32.7 339.0 33.2 339.0 33.5C339.0 33.5 339.2 34.0 339.5 34.4C339.9 35.2 339.9 35.2 340.0 37.4C340.1 39.5 340.1 39.6 340.3 40.1C340.6 40.8 340.6 40.8 340.3 41.5C340.1 42.0 340.1 42.1 340.0 43.7C339.9 45.5 339.9 45.5 339.5 46.2C339.2 46.8 339.1 47.0 339.0 47.6C338.9 48.6 338.9 48.7 338.0 49.7C337.6 50.1 337.2 50.6 337.2 50.8C336.8 51.7 336.7 51.9 335.9 52.8C335.0 53.6 334.4 54.0 334.1 54.0C334.0 54.0 333.6 54.3 333.1 54.5C332.7 54.8 332.2 55.0 332.2 55.0C332.1 55.0 331.6 55.2 331.2 55.5C330.7 55.8 330.3 56.0 330.2 56.0C330.1 56.0 329.7 56.2 329.3 56.5C328.1 57.1 322.5 57.2 321.4 56.5C320.8 56.2 320.6 56.1 319.9 56.0C319.2 55.9 319.0 55.8 318.4 55.5C317.9 55.2 317.6 55.0 317.5 55.0C316.7 55.0 311.6 49.8 311.6 49.1C311.6 49.0 311.4 48.6 311.1 48.2C310.8 47.6 310.7 47.4 310.6 46.7C310.5 46.0 310.4 45.8 310.1 45.2C309.7 44.5 309.7 44.5 309.7 40.8C309.7 37.1 309.7 37.1 310.1 36.4C310.4 35.8 310.5 35.6 310.6 34.9C310.7 34.2 310.8 34.0 311.1 33.4C311.4 33.0 311.6 32.6 311.6 32.5C311.6 31.8 316.7 26.6 317.5 26.6C317.5 26.6 318.0 26.4 318.4 26.1C318.9 25.8 319.3 25.6 319.4 25.6C319.5 25.6 319.8 25.5 320.2 25.3C321.2 24.6 321.1 24.6 325.0 24.7C328.5 24.7 328.5 24.7 329.2 25.1Z"/>
<path d="M86.2 18.9C85.7 19.0 85.6 19.3 85.9 20.0C86.0 20.4 86.2 20.7 86.2 20.7C86.2 20.8 86.4 21.2 86.6 21.7C86.9 22.2 87.1 22.6 87.1 22.7C87.1 22.8 87.3 23.2 87.6 23.6C88.0 24.2 88.0 24.4 88.1 25.1C88.2 25.8 88.3 26.0 88.6 26.6C88.8 27.0 89.0 27.4 89.1 27.6C89.1 27.7 89.4 28.2 89.6 28.6C89.9 29.1 90.0 29.3 90.1 30.0C90.1 30.7 90.2 30.9 90.6 31.5C90.8 31.9 91.0 32.3 91.1 32.5C91.1 32.6 91.3 33.1 91.5 33.5C91.9 34.0 92.0 34.2 92.0 34.9C92.1 35.6 92.2 35.8 92.5 36.4C92.7 36.8 93.0 37.2 93.0 37.4C93.1 37.5 93.3 38.0 93.5 38.4C93.8 38.9 93.9 39.1 94.0 39.8C94.1 40.5 94.1 40.7 94.5 41.3C94.7 41.7 94.9 42.1 95.0 42.3C95.0 42.4 95.2 42.9 95.5 43.3C95.8 43.8 95.9 44.0 96.0 44.7C96.0 45.4 96.1 45.6 96.4 46.2C96.7 46.6 96.9 47.0 96.9 47.2C97.0 47.3 97.2 47.8 97.4 48.2C97.8 48.7 97.8 48.9 97.9 49.6C98.0 50.3 98.1 50.5 98.5 51.2C98.7 51.6 98.9 52.0 98.9 52.1C98.9 52.2 99.1 52.6 99.4 53.1C99.7 53.5 99.9 54.0 99.9 54.0C99.9 54.1 100.1 54.5 100.3 54.9C100.7 55.6 100.8 55.8 100.9 56.5C100.9 57.2 101.0 57.4 101.3 58.0C101.6 58.3 101.8 58.8 101.8 58.9C101.9 59.1 102.1 59.6 102.3 59.9C102.6 60.4 102.7 60.7 102.8 61.3C103.0 62.8 103.0 62.9 106.7 62.9C109.9 62.9 110.1 62.8 110.8 62.2C111.4 61.6 111.5 61.3 111.6 60.4C111.7 59.7 111.8 59.5 112.1 58.9C112.3 58.6 112.6 58.1 112.6 58.0C112.7 57.8 112.9 57.3 113.1 57.0C113.4 56.4 113.5 56.2 113.6 55.5C113.7 54.8 113.8 54.6 114.1 54.0C114.3 53.7 114.5 53.2 114.6 53.1C114.6 52.9 114.8 52.4 115.1 52.1C115.4 51.5 115.5 51.3 115.6 50.6C115.6 49.9 115.7 49.7 116.0 49.1C116.3 48.8 116.5 48.3 116.5 48.2C116.6 48.0 116.8 47.5 117.0 47.2C117.4 46.6 117.4 46.4 117.5 45.7C117.6 45.0 117.7 44.8 118.1 44.2C118.3 43.7 118.5 43.3 118.5 43.3C118.5 43.2 118.7 42.7 119.0 42.3C119.3 41.8 119.5 41.4 119.5 41.3C119.5 41.2 119.7 40.8 119.9 40.4C120.3 39.8 120.4 39.5 120.5 38.8C120.5 38.2 120.6 37.9 120.9 37.4C121.2 37.0 121.4 36.6 121.4 36.4C121.5 36.2 121.7 35.8 121.9 35.4C122.3 34.9 122.3 34.6 122.4 33.9C122.5 33.3 122.6 33.0 122.9 32.5C123.1 32.1 123.3 31.7 123.4 31.5C123.4 31.3 123.7 30.9 123.9 30.5C124.2 30.0 124.3 29.7 124.4 29.0C124.5 28.4 124.5 28.1 124.9 27.6C125.1 27.2 125.3 26.8 125.4 26.6C125.4 26.4 125.6 26.0 125.8 25.6C126.2 25.1 126.3 24.8 126.3 24.1C126.4 23.4 126.5 23.2 126.9 22.6C127.1 22.2 127.3 21.8 127.3 21.7C127.3 21.6 127.5 21.2 127.7 20.9C128.3 19.8 128.3 19.3 127.6 18.9C127.2 18.7 121.9 18.7 121.2 18.9C120.3 19.1 119.6 20.0 119.5 21.2C119.4 21.9 119.3 22.1 119.0 22.7C118.8 23.0 118.5 23.5 118.5 23.6C118.4 23.8 118.2 24.3 118.0 24.6C117.7 25.2 117.6 25.4 117.5 26.1C117.4 26.8 117.4 27.0 117.0 27.6C116.8 27.9 116.6 28.4 116.5 28.6C116.5 28.7 116.3 29.2 116.0 29.5C115.7 30.1 115.6 30.3 115.6 31.0C115.5 31.7 115.4 31.9 115.1 32.5C114.8 32.8 114.6 33.3 114.6 33.5C114.5 33.6 114.3 34.1 114.1 34.4C113.8 35.0 113.7 35.2 113.6 35.9C113.5 36.6 113.4 36.8 113.1 37.4C112.9 37.7 112.7 38.2 112.6 38.4C112.6 38.5 112.3 39.0 112.1 39.3C111.8 39.9 111.7 40.1 111.6 40.8C111.6 41.5 111.5 41.7 111.1 42.3C110.9 42.6 110.7 43.1 110.7 43.3C110.6 43.4 110.4 43.9 110.2 44.2C109.8 44.8 109.8 45.0 109.7 45.7C109.6 46.4 109.5 46.6 109.2 47.2C109.0 47.5 108.7 48.0 108.7 48.2C108.6 48.3 108.4 48.8 108.2 49.1C107.9 49.6 107.8 50.0 107.7 50.5C107.4 52.3 106.0 51.7 105.8 49.6C105.7 48.9 105.6 48.7 105.3 48.2C104.9 47.6 104.9 47.4 104.8 46.7C104.7 46.0 104.6 45.8 104.3 45.2C104.1 44.8 103.8 44.4 103.8 44.2C103.7 44.1 103.5 43.6 103.3 43.3C103.0 42.7 102.9 42.5 102.8 41.8C102.7 41.1 102.7 40.9 102.3 40.3C102.1 39.9 101.9 39.5 101.8 39.3C101.8 39.2 101.6 38.7 101.3 38.4C101.0 37.8 100.9 37.6 100.9 36.9C100.8 36.2 100.7 36.0 100.4 35.4C100.1 35.0 99.9 34.6 99.9 34.4C99.8 34.3 99.6 33.8 99.4 33.5C99.0 32.9 99.0 32.7 98.9 32.0C98.8 31.3 98.7 31.1 98.4 30.5C98.2 30.1 98.0 29.7 97.9 29.5C97.9 29.4 97.6 28.9 97.4 28.6C97.1 28.0 97.0 27.8 96.9 27.1C96.9 26.4 96.8 26.2 96.4 25.6C96.2 25.2 96.0 24.8 96.0 24.6C95.9 24.5 95.7 24.0 95.5 23.6C95.1 23.1 95.1 22.9 95.0 22.2C94.9 21.5 94.8 21.3 94.5 20.7C94.3 20.4 94.0 19.8 93.9 19.6C93.5 18.7 93.5 18.7 89.7 18.8C88.0 18.8 86.3 18.8 86.2 18.9Z"/>
<path d="M182.9 18.9C182.2 19.2 182.3 17.1 182.2 40.6C182.2 63.3 182.2 62.2 182.7 62.6C183.1 62.9 188.7 63.0 189.3 62.7C190.1 62.4 190.0 63.3 190.0 51.0C190.1 40.1 190.1 40.1 190.5 39.3C191.0 38.6 191.0 38.6 191.0 36.9C191.1 35.2 191.1 35.2 191.5 34.4C191.8 34.0 192.0 33.5 192.0 33.5C192.0 33.4 192.2 32.9 192.5 32.5C192.8 32.0 193.0 31.6 193.0 31.5C193.0 30.8 197.2 26.6 197.9 26.6C198.0 26.6 198.4 26.4 198.8 26.1C199.6 25.7 199.6 25.7 203.2 25.6C208.1 25.5 207.7 25.8 207.7 22.0C207.6 18.5 208.0 18.7 203.1 18.8C199.6 18.8 199.6 18.8 198.8 19.3C198.4 19.5 198.0 19.7 197.9 19.7C197.8 19.7 197.4 19.9 196.9 20.2C196.4 20.5 196.0 20.7 195.9 20.7C195.4 20.7 192.5 23.4 192.2 24.2C191.8 25.1 191.6 25.5 191.3 26.0C190.2 27.4 190.1 27.2 190.0 22.9C190.0 19.2 190.0 19.2 189.3 18.9C188.8 18.7 183.4 18.7 182.9 18.9Z"/>
<path d="M211.3 18.9C210.6 19.2 210.7 17.1 210.6 40.6C210.6 63.3 210.6 62.2 211.1 62.6C211.6 62.9 217.5 62.9 217.9 62.6C218.5 62.2 218.5 63.3 218.5 40.8C218.5 18.3 218.5 19.4 217.9 19.0C217.6 18.7 211.9 18.6 211.3 18.9Z"/>
<path d="M261.3 18.9C260.5 19.2 260.4 20.5 261.1 21.7C261.3 22.0 261.5 22.5 261.6 22.7C261.6 22.8 261.9 23.3 262.1 23.6C262.4 24.2 262.5 24.4 262.6 25.1C262.6 25.8 262.7 26.0 263.1 26.6C263.3 27.0 263.5 27.4 263.5 27.6C263.6 27.7 263.8 28.2 264.0 28.6C264.4 29.1 264.5 29.3 264.5 30.0C264.6 30.7 264.7 30.9 265.1 31.6C265.3 32.0 265.5 32.4 265.5 32.5C265.5 32.5 265.7 33.0 266.0 33.5C266.3 33.9 266.5 34.4 266.5 34.4C266.5 34.5 266.7 34.9 266.9 35.3C267.3 36.0 267.4 36.2 267.5 36.9C267.5 37.6 267.6 37.8 268.0 38.4C268.2 38.7 268.4 39.2 268.5 39.3C268.5 39.5 268.7 39.9 268.9 40.3C269.3 40.9 269.4 41.1 269.4 41.8C269.5 42.5 269.6 42.7 269.9 43.3C270.1 43.6 270.4 44.1 270.4 44.2C270.5 44.4 270.7 44.8 270.9 45.2C271.2 45.8 271.3 46.0 271.4 46.7C271.5 47.4 271.5 47.6 271.9 48.2C272.1 48.5 272.3 49.0 272.4 49.1C272.4 49.3 272.6 49.8 272.9 50.1C273.2 50.7 273.3 50.9 273.4 51.6C273.4 52.3 273.5 52.5 273.9 53.1C274.1 53.5 274.3 53.9 274.3 54.0C274.3 54.1 274.6 54.6 274.8 55.0C275.1 55.5 275.3 55.9 275.3 56.0C275.3 56.1 275.5 56.5 275.8 56.9C276.1 57.5 276.2 57.7 276.3 58.4C276.4 59.1 276.4 59.4 276.8 60.0C277.5 61.0 277.4 62.7 276.8 63.9C276.5 64.3 276.3 64.7 276.3 64.8C276.3 64.9 276.1 65.3 275.8 65.8C275.5 66.3 275.3 66.7 275.3 66.8C275.3 67.5 272.1 70.7 271.4 70.7C271.3 70.7 270.9 70.9 270.5 71.2C269.7 71.6 269.7 71.6 265.5 71.7C260.2 71.7 260.6 71.5 260.6 74.8C260.7 77.8 260.0 77.6 267.6 77.5C273.6 77.5 273.6 77.5 274.4 77.0C274.8 76.8 275.2 76.6 275.3 76.6C275.5 76.6 276.1 76.2 276.8 75.6C277.2 75.2 277.8 74.8 278.2 74.6C278.9 74.3 278.9 74.3 279.2 73.6C279.4 73.2 279.9 72.5 280.3 72.1C280.6 71.7 281.0 71.2 281.1 71.0C281.1 70.8 281.2 70.5 281.3 70.4C281.4 70.2 281.7 69.7 282.1 69.3C282.8 68.5 283.2 68.0 283.2 67.7C283.2 67.7 283.3 67.3 283.6 66.9C284.0 66.2 284.1 66.0 284.1 65.3C284.2 64.6 284.3 64.4 284.7 63.8C284.9 63.3 285.1 62.9 285.1 62.9C285.1 62.8 285.3 62.3 285.6 61.9C285.9 61.4 286.1 61.0 286.1 60.9C286.1 60.8 286.3 60.4 286.5 60.0C286.9 59.4 287.0 59.1 287.1 58.4C287.2 57.8 287.2 57.5 287.6 57.0C287.8 56.6 288.0 56.2 288.1 56.0C288.1 55.8 288.3 55.4 288.5 55.0C288.9 54.5 289.0 54.2 289.0 53.5C289.1 52.9 289.2 52.6 289.5 52.1C289.7 51.7 290.0 51.3 290.0 51.1C290.1 50.9 290.3 50.5 290.5 50.1C290.8 49.6 290.9 49.3 291.0 48.6C291.1 48.0 291.1 47.7 291.5 47.2C291.7 46.8 291.9 46.4 292.0 46.2C292.0 46.0 292.2 45.6 292.5 45.2C292.8 44.7 292.9 44.4 293.0 43.7C293.0 43.1 293.1 42.8 293.4 42.3C293.7 41.9 293.9 41.5 293.9 41.3C294.0 41.1 294.2 40.7 294.4 40.3C294.8 39.8 294.8 39.5 294.9 38.8C295.0 38.2 295.1 37.9 295.4 37.4C295.6 37.0 295.8 36.6 295.9 36.4C295.9 36.2 296.2 35.8 296.4 35.4C296.7 34.9 296.8 34.6 296.9 33.9C297.0 33.3 297.0 33.0 297.4 32.5C297.6 32.1 297.8 31.7 297.9 31.5C297.9 31.3 298.1 30.9 298.3 30.5C298.7 30.0 298.8 29.7 298.8 29.0C298.9 28.3 299.0 28.1 299.4 27.5C299.6 27.1 299.8 26.7 299.8 26.6C299.8 26.5 300.0 26.1 300.3 25.6C300.6 25.1 300.8 24.7 300.8 24.6C300.8 24.5 301.0 24.1 301.2 23.7C301.6 23.1 301.7 22.9 301.8 22.2C301.9 21.5 301.9 21.3 302.2 20.8C302.8 19.8 302.8 19.3 302.1 18.9C301.7 18.7 296.4 18.7 295.7 18.9C294.8 19.1 294.1 20.0 293.9 21.2C293.9 21.9 293.8 22.1 293.4 22.7C293.2 23.0 293.0 23.5 293.0 23.6C292.9 23.8 292.7 24.3 292.5 24.6C292.1 25.2 292.1 25.4 292.0 26.1C291.9 26.8 291.8 27.0 291.5 27.6C291.3 27.9 291.0 28.4 291.0 28.6C290.9 28.7 290.7 29.2 290.5 29.5C290.2 30.1 290.1 30.3 290.0 31.0C289.9 31.7 289.9 31.9 289.5 32.5C289.2 33.0 289.1 33.3 289.0 33.9C289.0 34.6 288.9 34.9 288.5 35.4C288.3 35.8 288.1 36.2 288.1 36.4C288.0 36.6 287.8 37.0 287.6 37.4C287.2 37.9 287.2 38.2 287.1 38.8C287.0 39.5 286.9 39.8 286.6 40.3C286.4 40.7 286.1 41.1 286.1 41.3C286.0 41.5 285.8 41.9 285.6 42.3C285.3 42.8 285.2 43.1 285.1 43.7C285.0 44.4 285.0 44.7 284.6 45.2C284.4 45.6 284.2 46.0 284.1 46.2C284.1 46.4 283.9 46.8 283.6 47.2C283.3 47.7 283.2 48.0 283.2 48.6C283.1 49.4 283.0 49.7 282.5 50.3C282.3 50.6 282.1 51.1 281.9 51.9C281.9 52.1 281.8 52.2 281.7 52.2C281.5 52.2 281.5 52.1 281.3 51.3C281.2 51.0 281.0 50.5 280.7 50.2C280.5 49.8 280.3 49.3 280.2 49.2C280.2 49.0 279.9 48.5 279.7 48.2C279.4 47.6 279.3 47.4 279.2 46.7C279.2 46.0 279.1 45.8 278.7 45.2C278.5 44.8 278.3 44.4 278.3 44.2C278.2 44.1 278.0 43.6 277.8 43.3C277.4 42.7 277.3 42.5 277.3 41.8C277.2 41.1 277.1 40.9 276.8 40.3C276.6 39.9 276.3 39.5 276.3 39.3C276.2 39.2 276.0 38.7 275.8 38.4C275.5 37.8 275.4 37.6 275.3 36.9C275.2 36.2 275.2 36.0 274.8 35.4C274.6 35.0 274.4 34.6 274.3 34.4C274.3 34.3 274.1 33.8 273.8 33.5C273.5 32.9 273.4 32.7 273.4 32.0C273.3 31.3 273.2 31.1 272.9 30.5C272.6 30.1 272.4 29.7 272.4 29.5C272.3 29.4 272.1 28.9 271.9 28.6C271.5 28.0 271.5 27.8 271.4 27.1C271.3 26.4 271.2 26.2 270.9 25.6C270.7 25.2 270.5 24.8 270.4 24.6C270.4 24.5 270.1 24.0 269.9 23.6C269.6 23.1 269.5 22.9 269.4 22.2C269.4 21.5 269.3 21.3 269.0 20.7C268.7 20.4 268.5 19.8 268.3 19.6C268.0 18.8 267.9 18.7 264.5 18.7C262.3 18.8 261.6 18.8 261.3 18.9Z"/>
</g>
</svg>